<svg version="1.2" xmlns="http://www.w3.org/2000/svg" viewBox="0 0 1200 642" width="1200" height="642">
	<style>
		.s0 { fill: #6e1236 } 
	</style>
	<g id="Folder 1">
		<path id="La carpintería" fill-rule="evenodd" class="s0" d="m92.09 134h-91.32v-129.3h34.44v98.34h56.88zm4.27-28.95q0-9.66 5.12-16.94 5.12-7.47 14.13-11.66 9.18-4.18 20.84-4.18 5.47 0 10.24 0.91 4.95 0.91 8.48 2.73v-2.92q0-6.73-3.89-10.01-3.7-3.28-12.18-3.28-7.77 0-14.66 2.73-6.71 2.55-14.13 7.65l-9.72-21.49q9.37-6.19 19.61-9.1 10.42-3.1 22.25-3.1 22.08 0 34.09 10.38 12.19 10.2 12.19 30.41v18.58q0 4.92 1.41 6.92 1.41 1.82 4.95 2.18v29.14q-4.07 0.91-7.78 1.46-3.53 0.36-6.35 0.36-9.01 0-13.78-3.28-4.59-3.46-6-10.01l-0.71-3.46q-6.18 8.19-14.31 12.56-8.12 4.19-17.31 4.19-9.18 0-16.6-4-7.42-4.01-11.66-10.93-4.23-7.1-4.23-15.84zm54.39 2.36q1.95-1.45 3.18-3.09 1.24-1.82 1.24-3.64v-7.11q-2.83-1.09-6.53-1.82-3.54-0.73-6.36-0.73-6.01 0-10.25 3.1-4.06 3.1-4.06 7.83 0 2.55 1.41 4.73 1.42 2.01 3.89 3.28 2.47 1.1 5.65 1.1 3 0 6.18-0.92 3.36-1.09 5.65-2.73zm141.65 28.41q-12.36 0-21.9-4-9.36-4.01-15.9-10.93-6.53-7.1-9.89-16.03-3.35-8.92-3.35-18.75 0-13.12 5.82-24.41 6.01-11.47 17.31-18.39 11.48-6.92 27.91-6.92 16.78 0 28.26 7.28 11.48 7.29 17.13 18.76l-32.67 10.2q-2.3-3.46-5.66-5.28-3.18-1.82-7.24-1.82-4.59 0-8.3 2.55-3.71 2.36-6 6.92-2.12 4.55-2.12 11.11 0 6.37 2.12 11.11 2.29 4.55 6 7.1 3.71 2.36 8.3 2.36 2.83 0 5.12-0.72 2.3-0.91 4.24-2.55 2.12-1.64 3.54-3.83l32.67 10.2q-3.71 7.65-10.24 13.48-6.36 5.82-15.19 9.28-8.66 3.28-19.96 3.28zm50.96-30.77q0-9.66 5.12-16.94 5.12-7.47 14.13-11.66 9.18-4.18 20.84-4.18 5.47 0 10.24 0.91 4.95 0.91 8.48 2.73v-2.92q0-6.73-3.89-10.01-3.7-3.28-12.18-3.28-7.77 0-14.66 2.73-6.71 2.55-14.13 7.65l-9.72-21.49q9.37-6.19 19.61-9.1 10.42-3.1 22.25-3.1 22.08 0 34.09 10.38 12.19 10.2 12.19 30.41v18.58q0 4.92 1.41 6.92 1.41 1.82 4.95 2.18v29.14q-4.07 0.91-7.78 1.46-3.53 0.36-6.35 0.36-9.01 0-13.78-3.28-4.59-3.46-6-10.01l-0.71-3.46q-6.18 8.19-14.31 12.56-8.12 4.19-17.31 4.19-9.18 0-16.6-4-7.42-4.01-11.66-10.93-4.23-7.1-4.23-15.84zm54.39 2.36q1.95-1.45 3.18-3.09 1.24-1.82 1.24-3.64v-7.11q-2.83-1.09-6.53-1.82-3.54-0.73-6.36-0.73-6.01 0-10.25 3.1-4.06 3.1-4.06 7.83 0 2.55 1.41 4.73 1.42 2.01 3.89 3.28 2.47 1.1 5.65 1.1 3 0 6.18-0.92 3.36-1.09 5.65-2.73zm118.78-70.84v31.14q-9.71 0-17.66 2.19-7.95 2.18-11.83 7.28v56.82h-33.56v-95.79h30.73v18.21q4.94-9.65 12.36-14.75 7.42-5.28 15.72-5.28 1.94 0 2.65 0 0.88 0 1.59 0.18zm73.47 99.25q-10.07 0-17.48-4-7.42-4.19-11.48-12.02v52.99h-33.56v-134.58h29.14v14.39q4.95-7.83 12.19-12.02 7.41-4.19 17.84-4.19 9.36 0 17.13 3.64 7.77 3.64 13.6 10.38 5.83 6.74 9 15.66 3.18 8.93 3.18 19.67 0 14.39-5.12 25.68-5.12 11.29-14.13 17.85-8.83 6.55-20.31 6.55zm-11.66-29.14q3.71 0 6.72-1.63 3.17-1.64 5.47-4.56 2.3-2.91 3.53-6.74 1.24-3.82 1.24-8.19 0-4.55-1.41-8.19-1.24-3.65-3.71-6.2-2.48-2.73-5.83-4.19-3.36-1.45-7.42-1.45-2.29 0-4.59 0.73-2.12 0.54-4.06 1.82-1.95 1.09-3.89 2.91-1.77 1.82-3.35 4.37v16.57q1.58 4.19 4.23 7.65 2.83 3.28 6.19 5.28 3.35 1.82 6.88 1.82zm96.7 27.32h-33.56v-95.79h33.56zm0-103.8h-33.56v-29.14h33.56zm109.87 40.79v63.01h-33.56v-53.9q0-7.1-3.18-10.2-3-3.28-7.06-3.28-2.83 0-6.01 1.82-3.18 1.64-5.83 4.74-2.65 3.09-4.23 7.1v53.72h-33.56v-95.79h30.2v14.21q3.36-5.28 8.48-8.74 5.12-3.64 11.83-5.47 6.71-1.82 14.66-1.82 9.54 0 15.19 3.46 5.65 3.46 8.48 8.93 2.82 5.46 3.71 11.47 0.88 5.83 0.88 10.74zm75.74 30.42l6 27.31q-4.59 2.01-9.89 3.83-5.12 1.64-10.6 2.55-5.3 0.91-10.42 0.91-7.59 0-13.95-2.55-6.36-2.73-10.24-8.74-3.71-6.2-3.71-16.58v-43.88h-11.48v-26.05h11.48v-30.04h33.55v30.04h18.2v26.05h-18.2v31.68q0 4.74 1.95 6.74 1.94 1.82 5.3 1.82 2.47 0 5.65-0.91 3.18-0.91 6.36-2.18zm59.57 34.41q-12.18 0-21.72-3.82-9.54-4.01-16.07-10.74-6.36-6.74-9.72-15.48-3.35-8.74-3.35-18.4 0-13.84 5.82-25.31 5.83-11.65 17.14-18.57 11.3-7.11 27.9-7.11 16.6 0 27.91 6.92 11.3 6.92 17.13 18.21 5.83 11.29 5.83 24.59 0 2.73-0.35 5.64-0.18 2.74-0.53 4.92h-65.18q0.36 5.1 2.65 8.38 2.47 3.09 6.01 4.55 3.71 1.46 7.59 1.46 5.48 0 10.25-2.55 4.94-2.55 6.53-7.1l28.44 8.37q-3.71 7.65-10.42 13.48-6.54 5.83-15.55 9.29-9 3.27-20.31 3.27zm-15.89-59.91h30.73q-0.53-4.73-2.65-8.01-1.94-3.28-5.3-5.1-3.18-1.82-7.42-1.82-4.24 0-7.59 1.82-3.18 1.82-5.3 5.1-1.94 3.28-2.47 8.01zm140.2-39.34v31.15q-9.71 0-17.66 2.18-7.95 2.19-11.83 7.29v56.81h-33.56v-95.79h30.73v18.21q4.94-9.65 12.36-14.75 7.42-5.28 15.72-5.28 1.94 0 2.65 0 0.88 0 1.59 0.18zm44.51 97.43h-33.56v-95.79h33.56zm11.3-132.94l-17.49 31.69-21.19-5.83 8.83-25.86zm0.02 103.99q0-9.65 5.12-16.94 5.12-7.46 14.13-11.65 9.18-4.19 20.84-4.19 5.47 0 10.24 0.91 4.95 0.91 8.48 2.73v-2.91q0-6.74-3.88-10.02-3.71-3.28-12.19-3.28-7.77 0-14.66 2.73-6.71 2.55-14.13 7.65l-9.71-21.49q9.36-6.19 19.6-9.1 10.42-3.1 22.25-3.1 22.08 0 34.09 10.38 12.19 10.2 12.19 30.42v18.57q0 4.92 1.41 6.92 1.41 1.82 4.95 2.19v29.13q-4.06 0.91-7.77 1.46-3.54 0.37-6.36 0.37-9.01 0-13.78-3.28-4.59-3.46-6-10.02l-0.71-3.46q-6.18 8.2-14.31 12.57-8.12 4.19-17.3 4.19-9.19 0-16.61-4.01-7.42-4.01-11.65-10.93-4.24-7.1-4.24-15.84zm54.4 2.37q1.94-1.46 3.17-3.1 1.24-1.82 1.24-3.64v-7.1q-2.82-1.1-6.53-1.83-3.54-0.72-6.36-0.72-6.01 0-10.25 3.09-4.06 3.1-4.06 7.83 0 2.55 1.41 4.74 1.42 2 3.89 3.28 2.47 1.09 5.65 1.09 3 0 6.18-0.91 3.36-1.1 5.66-2.73z"/>
		<path id="Path 3" fill-rule="evenodd" class="s0" d="m1196.67 479.18l-195.86 147.9v-265q0-22.03-9.71-33.91-9.71-11.86-24.29-11.86-15.38 0-25.48 11.44-10.13 11.45-10.12 36.02v116.32l-195.86 147.9v-265.91q0-22.03-9.71-33.91-9.71-11.86-24.28-11.86-15.38 0-25.49 11.44-10.12 11.45-10.12 36.02v118.09l-194.96 147.23h-0.89v-425.52h191l4.85 64.42q24.27-42.37 57.46-59.76 33.18-17.37 72.03-17.38 95.49 0.01 132.73 77.14 22.65-41.53 55.84-59.33 33.17-17.81 72.03-17.81 65.56 0 103.19 36.88 37.64 36.87 37.64 118.25zm-739.92-48.31l-276.59 208.87c-9.4 1.35-19.18 2.07-29.36 2.07q-66.11-0.01-106.79-33.91-40.68-33.9-40.68-95.78 0-77.13 60.6-112.74 60.59-35.6 183.48-35.61h24.58v-44.07q0-16.95-9.32-25.43-9.34-8.47-30.51-8.47-21.19 0-31.36 9.32-10.17 9.33-10.17 34.75h-169.5q0-77.12 62.29-108.07 62.29-30.94 157.21-30.94 118.65 0 167.38 36.45 48.74 36.45 48.74 114.43zm-184.76 12.59h-27.97q-37.29 0-51.69 13.57-14.42 13.56-14.41 35.59-0.01 44.09 47.46 44.09 25.42 0 36.02-14.84 10.59-14.83 10.59-42.8z"/>
	</g>
</svg>